# Blender v2.82 (sub 7) OBJ File: ''
# www.blender.org
mtllib infinite_cylinder.mtl
o LK_Infinite_Cylinder
v 0.000000 -1.000000 1.000000
v 0.000000 -1.000000 -1.000000
v 0.195090 -0.980785 -1.000000
v 0.195090 -0.980785 1.000000
v 0.382683 -0.923880 -1.000000
v 0.382683 -0.923880 1.000000
v 0.555570 -0.831470 -1.000000
v 0.555570 -0.831470 1.000000
v 0.707107 -0.707107 -1.000000
v 0.707107 -0.707107 1.000000
v 0.831470 -0.555570 -1.000000
v 0.831470 -0.555570 1.000000
v 0.923880 -0.382683 -1.000000
v 0.923880 -0.382683 1.000000
v 0.980785 -0.195090 -1.000000
v 0.980785 -0.195090 1.000000
v 1.000000 0.000000 -1.000000
v 1.000000 0.000000 1.000000
v 0.980785 0.195090 -1.000000
v 0.980785 0.195090 1.000000
v 0.923880 0.382683 -1.000000
v 0.923880 0.382683 1.000000
v 0.831470 0.555570 -1.000000
v 0.831470 0.555570 1.000000
v 0.707107 0.707107 -1.000000
v 0.707107 0.707107 1.000000
v 0.555570 0.831470 -1.000000
v 0.555570 0.831470 1.000000
v 0.382683 0.923880 -1.000000
v 0.382683 0.923880 1.000000
v 0.195090 0.980785 -1.000000
v 0.195090 0.980785 1.000000
v 0.000000 1.000000 -1.000000
v 0.000000 1.000000 1.000000
v -0.195091 0.980785 -1.000000
v -0.195091 0.980785 1.000000
v -0.382684 0.923879 -1.000000
v -0.382684 0.923879 1.000000
v -0.555571 0.831469 -1.000000
v -0.555571 0.831469 1.000000
v -0.707107 0.707106 -1.000000
v -0.707107 0.707106 1.000000
v -0.831470 0.555570 -1.000000
v -0.831470 0.555570 1.000000
v -0.923880 0.382683 -1.000000
v -0.923880 0.382683 1.000000
v -0.980785 0.195089 -1.000000
v -0.980785 0.195089 1.000000
v -1.000000 -0.000001 -1.000000
v -1.000000 -0.000001 1.000000
v -0.980785 -0.195091 -1.000000
v -0.980785 -0.195091 1.000000
v -0.923879 -0.382684 -1.000000
v -0.923879 -0.382684 1.000000
v -0.831469 -0.555571 -1.000000
v -0.831469 -0.555571 1.000000
v -0.707106 -0.707108 -1.000000
v -0.707106 -0.707108 1.000000
v -0.555569 -0.831470 -1.000000
v -0.555569 -0.831470 1.000000
v -0.382682 -0.923880 -1.000000
v -0.382682 -0.923880 1.000000
v -0.195089 -0.980786 -1.000000
v -0.195089 -0.980786 1.000000
vt 1.000000 0.500000
vt 1.000000 1.000000
vt 0.968750 1.000000
vt 0.968750 0.500000
vt 0.937500 1.000000
vt 0.937500 0.500000
vt 0.906250 1.000000
vt 0.906250 0.500000
vt 0.875000 1.000000
vt 0.875000 0.500000
vt 0.843750 1.000000
vt 0.843750 0.500000
vt 0.812500 1.000000
vt 0.812500 0.500000
vt 0.781250 1.000000
vt 0.781250 0.500000
vt 0.750000 1.000000
vt 0.750000 0.500000
vt 0.718750 1.000000
vt 0.718750 0.500000
vt 0.687500 1.000000
vt 0.687500 0.500000
vt 0.656250 1.000000
vt 0.656250 0.500000
vt 0.625000 1.000000
vt 0.625000 0.500000
vt 0.593750 1.000000
vt 0.593750 0.500000
vt 0.562500 1.000000
vt 0.562500 0.500000
vt 0.531250 1.000000
vt 0.531250 0.500000
vt 0.500000 1.000000
vt 0.500000 0.500000
vt 0.468750 1.000000
vt 0.468750 0.500000
vt 0.437500 1.000000
vt 0.437500 0.500000
vt 0.406250 1.000000
vt 0.406250 0.500000
vt 0.375000 1.000000
vt 0.375000 0.500000
vt 0.343750 1.000000
vt 0.343750 0.500000
vt 0.312500 1.000000
vt 0.312500 0.500000
vt 0.281250 1.000000
vt 0.281250 0.500000
vt 0.250000 1.000000
vt 0.250000 0.500000
vt 0.218750 1.000000
vt 0.218750 0.500000
vt 0.187500 1.000000
vt 0.187500 0.500000
vt 0.156250 1.000000
vt 0.156250 0.500000
vt 0.125000 1.000000
vt 0.125000 0.500000
vt 0.093750 1.000000
vt 0.093750 0.500000
vt 0.062500 1.000000
vt 0.062500 0.500000
vt 0.031250 1.000000
vt 0.031250 0.500000
vt 0.000000 1.000000
vt 0.000000 0.500000
vn 0.0000 -1.0000 0.0000
vn 0.1951 -0.9808 0.0000
vn 0.3827 -0.9239 0.0000
vn 0.5556 -0.8314 0.0000
vn 0.7071 -0.7071 0.0000
vn 0.8314 -0.5556 0.0000
vn 0.9239 -0.3827 0.0000
vn 0.9808 -0.1951 0.0000
vn 1.0000 0.0000 0.0000
vn 0.9808 0.1951 0.0000
vn 0.9239 0.3827 0.0000
vn 0.8314 0.5556 0.0000
vn 0.7071 0.7071 0.0000
vn 0.5556 0.8314 0.0000
vn 0.3827 0.9239 0.0000
vn 0.1951 0.9808 0.0000
vn 0.0000 1.0000 0.0000
vn -0.1951 0.9808 0.0000
vn -0.3827 0.9239 0.0000
vn -0.5556 0.8314 0.0000
vn -0.7071 0.7071 0.0000
vn -0.8314 0.5556 0.0000
vn -0.9239 0.3827 0.0000
vn -0.9808 0.1951 0.0000
vn -1.0000 0.0000 0.0000
vn -0.9808 -0.1951 0.0000
vn -0.9239 -0.3827 0.0000
vn -0.8314 -0.5556 0.0000
vn -0.7071 -0.7071 0.0000
vn -0.5556 -0.8314 0.0000
vn -0.3827 -0.9239 0.0000
vn -0.1951 -0.9808 0.0000
usemtl None
s 1
f 1/1/1 2/2/1 3/3/2 4/4/2
f 4/4/2 3/3/2 5/5/3 6/6/3
f 6/6/3 5/5/3 7/7/4 8/8/4
f 8/8/4 7/7/4 9/9/5 10/10/5
f 10/10/5 9/9/5 11/11/6 12/12/6
f 12/12/6 11/11/6 13/13/7 14/14/7
f 14/14/7 13/13/7 15/15/8 16/16/8
f 16/16/8 15/15/8 17/17/9 18/18/9
f 18/18/9 17/17/9 19/19/10 20/20/10
f 20/20/10 19/19/10 21/21/11 22/22/11
f 22/22/11 21/21/11 23/23/12 24/24/12
f 24/24/12 23/23/12 25/25/13 26/26/13
f 26/26/13 25/25/13 27/27/14 28/28/14
f 28/28/14 27/27/14 29/29/15 30/30/15
f 30/30/15 29/29/15 31/31/16 32/32/16
f 32/32/16 31/31/16 33/33/17 34/34/17
f 34/34/17 33/33/17 35/35/18 36/36/18
f 36/36/18 35/35/18 37/37/19 38/38/19
f 38/38/19 37/37/19 39/39/20 40/40/20
f 40/40/20 39/39/20 41/41/21 42/42/21
f 42/42/21 41/41/21 43/43/22 44/44/22
f 44/44/22 43/43/22 45/45/23 46/46/23
f 46/46/23 45/45/23 47/47/24 48/48/24
f 48/48/24 47/47/24 49/49/25 50/50/25
f 50/50/25 49/49/25 51/51/26 52/52/26
f 52/52/26 51/51/26 53/53/27 54/54/27
f 54/54/27 53/53/27 55/55/28 56/56/28
f 56/56/28 55/55/28 57/57/29 58/58/29
f 58/58/29 57/57/29 59/59/30 60/60/30
f 60/60/30 59/59/30 61/61/31 62/62/31
f 62/62/31 61/61/31 63/63/32 64/64/32
f 64/64/32 63/63/32 2/65/1 1/66/1
